<svg width="800" height="600" viewBox="0 0 800 600" fill="none" xmlns="http://www.w3.org/2000/svg">
  <!-- Background gradient -->
  <defs>
    <linearGradient id="bg2" x1="0%" y1="0%" x2="100%" y2="100%">
      <stop offset="0%" style="stop-color:#10B981;stop-opacity:1" />
      <stop offset="100%" style="stop-color:#059669;stop-opacity:1" />
    </linearGradient>
  </defs>
  
  <!-- Background -->
  <rect width="800" height="600" fill="url(#bg2)"/>
  
  <!-- Mobile banking illustration -->
  <!-- Phone outline -->
  <rect x="300" y="150" width="200" height="300" rx="20" fill="white" fill-opacity="0.2"/>
  <rect x="320" y="170" width="160" height="260" rx="8" fill="white" fill-opacity="0.9"/>
  
  <!-- Screen content -->
  <!-- Top bar -->
  <rect x="330" y="180" width="140" height="20" rx="4" fill="#10B981"/>
  <text x="400" y="194" text-anchor="middle" fill="white" font-family="Arial, sans-serif" font-size="12" font-weight="bold">SecureBank</text>
  
  <!-- Balance card -->
  <rect x="340" y="220" width="120" height="60" rx="8" fill="#10B981"/>
  <text x="400" y="240" text-anchor="middle" fill="white" font-family="Arial, sans-serif" font-size="12">Balance</text>
  <text x="400" y="260" text-anchor="middle" fill="white" font-family="Arial, sans-serif" font-size="18" font-weight="bold">€12,345.67</text>
  
  <!-- Transaction items -->
  <rect x="340" y="300" width="120" height="15" rx="2" fill="#E5E7EB"/>
  <rect x="340" y="320" width="120" height="15" rx="2" fill="#E5E7EB"/>
  <rect x="340" y="340" width="120" height="15" rx="2" fill="#E5E7EB"/>
  <rect x="340" y="360" width="120" height="15" rx="2" fill="#E5E7EB"/>
  
  <!-- Security icons -->
  <circle cx="200" cy="250" r="40" fill="white" fill-opacity="0.2"/>
  <rect x="185" y="235" width="30" height="20" rx="3" fill="white"/>
  <circle cx="200" cy="225" r="3" fill="#10B981"/>
  
  <circle cx="600" cy="350" r="40" fill="white" fill-opacity="0.2"/>
  <path d="M585 335 l15 10 l25 -20" stroke="white" stroke-width="4" fill="none"/>
  
  <!-- Title -->
  <text x="400" y="500" text-anchor="middle" fill="white" font-family="Arial, sans-serif" font-size="32" font-weight="bold">Mobile Banking</text>
  <text x="400" y="530" text-anchor="middle" fill="white" font-family="Arial, sans-serif" font-size="18" opacity="0.9">Secure Application</text>
</svg>
